HIERARCHY
ROOT Hips
{
	OFFSET 0.000000 97.167313 0.000000
	CHANNELS 6 Xposition Yposition Zposition Xrotation Yrotation Zrotation
	JOINT Spine
	{
		OFFSET 0.000000 13.784798 0.064400
		CHANNELS 3 Xrotation Yrotation Zrotation
		JOINT Spine1
		{
			OFFSET 0.000000 12.037903 0.404700
			CHANNELS 3 Xrotation Yrotation Zrotation
			JOINT Spine2
			{
				OFFSET 0.000000 17.795601 0.420200
				CHANNELS 3 Xrotation Yrotation Zrotation
				JOINT Neck
				{
					OFFSET 0.000000 39.131302 11.954600
					CHANNELS 3 Xrotation Yrotation Zrotation
					JOINT Head
					{
						OFFSET 0.000000 14.456192 15.627699
						CHANNELS 3 Xrotation Yrotation Zrotation
						JOINT HeadTop_End
						{
							OFFSET 0.000000 15.703506 7.603401
							CHANNELS 3 Xrotation Yrotation Zrotation
							End Site
							{
								OFFSET 0.000000 17.447403 0.000000
							}
						}
					}
				}
				JOINT LeftShoulder
				{
					OFFSET 17.399500 24.608795 1.168800
					CHANNELS 3 Xrotation Yrotation Zrotation
					JOINT LeftArm
					{
						OFFSET 18.980635 5.765305 1.818600
						CHANNELS 3 Xrotation Yrotation Zrotation
						JOINT LeftForeArm
						{
							OFFSET 49.290169 0.000000 0.000000
							CHANNELS 3 Xrotation Yrotation Zrotation
							JOINT LeftHand
							{
								OFFSET 31.562012 0.000000 0.000000
								CHANNELS 3 Xrotation Yrotation Zrotation
								JOINT LeftHandThumb1
								{
									OFFSET 6.133995 -4.388519 7.076070
									CHANNELS 3 Xrotation Yrotation Zrotation
									JOINT LeftHandThumb2
									{
										OFFSET 6.037666 -3.485840 3.485847
										CHANNELS 3 Xrotation Yrotation Zrotation
										JOINT LeftHandThumb3
										{
											OFFSET 6.496506 -3.750763 3.750761
											CHANNELS 3 Xrotation Yrotation Zrotation
											JOINT LeftHandThumb4
											{
												OFFSET 5.616882 -3.242905 3.242910
												CHANNELS 3 Xrotation Yrotation Zrotation
												End Site
												{
													OFFSET -1.254608 7.132141 0.375429
												}
											}
										}
									}
								}
								JOINT LeftHandPinky1
								{
									OFFSET 18.920792 -0.453171 -11.426712
									CHANNELS 3 Xrotation Yrotation Zrotation
									JOINT LeftHandPinky2
									{
										OFFSET 4.919586 0.000000 0.000000
										CHANNELS 3 Xrotation Yrotation Zrotation
										JOINT LeftHandPinky3
										{
											OFFSET 5.233047 0.000000 0.000000
											CHANNELS 3 Xrotation Yrotation Zrotation
											JOINT LeftHandPinky4
											{
												OFFSET 5.571716 0.000000 0.000000
												CHANNELS 3 Xrotation Yrotation Zrotation
												End Site
												{
													OFFSET -3.459808 4.342407 -0.466164
												}
											}
										}
									}
								}
								JOINT LeftHandRing1
								{
									OFFSET 22.726120 -0.094986 -6.500475
									CHANNELS 3 Xrotation Yrotation Zrotation
									JOINT LeftHandRing2
									{
										OFFSET 6.408615 0.000000 0.000000
										CHANNELS 3 Xrotation Yrotation Zrotation
										JOINT LeftHandRing3
										{
											OFFSET 6.150223 0.000000 0.000000
											CHANNELS 3 Xrotation Yrotation Zrotation
											JOINT LeftHandRing4
											{
												OFFSET 6.145386 0.000000 0.000000
												CHANNELS 3 Xrotation Yrotation Zrotation
												End Site
												{
													OFFSET -3.671402 4.923981 -0.202372
												}
											}
										}
									}
								}
								JOINT LeftHandMiddle1
								{
									OFFSET 23.373947 0.000000 0.000001
									CHANNELS 3 Xrotation Yrotation Zrotation
									JOINT LeftHandMiddle2
									{
										OFFSET 6.996567 0.000000 0.000000
										CHANNELS 3 Xrotation Yrotation Zrotation
										JOINT LeftHandMiddle3
										{
											OFFSET 7.015945 0.000000 0.000000
											CHANNELS 3 Xrotation Yrotation Zrotation
											JOINT LeftHandMiddle4
											{
												OFFSET 7.721573 0.000000 0.000000
												CHANNELS 3 Xrotation Yrotation Zrotation
												End Site
												{
													OFFSET -4.651108 6.158463 0.251582
												}
											}
										}
									}
								}
								JOINT LeftHandIndex1
								{
									OFFSET 21.310577 -0.490082 6.209344
									CHANNELS 3 Xrotation Yrotation Zrotation
									JOINT LeftHandIndex2
									{
										OFFSET 7.536453 0.000000 0.000000
										CHANNELS 3 Xrotation Yrotation Zrotation
										JOINT LeftHandIndex3
										{
											OFFSET 7.512344 0.000000 0.000000
											CHANNELS 3 Xrotation Yrotation Zrotation
											JOINT LeftHandIndex4
											{
												OFFSET 10.212402 0.000000 0.000001
												CHANNELS 3 Xrotation Yrotation Zrotation
												End Site
												{
													OFFSET -5.180801 8.690506 1.388433
												}
											}
										}
									}
								}
							}
						}
					}
				}
				JOINT RightShoulder
				{
					OFFSET -17.399500 24.608795 1.168800
					CHANNELS 3 Xrotation Yrotation Zrotation
					JOINT RightArm
					{
						OFFSET -18.980635 5.765305 1.818600
						CHANNELS 3 Xrotation Yrotation Zrotation
						JOINT RightForeArm
						{
							OFFSET -49.290169 0.000000 0.000000
							CHANNELS 3 Xrotation Yrotation Zrotation
							JOINT RightHand
							{
								OFFSET -31.562012 0.000000 0.000000
								CHANNELS 3 Xrotation Yrotation Zrotation
								JOINT RightHandThumb1
								{
									OFFSET -6.133995 -4.388519 7.076070
									CHANNELS 3 Xrotation Yrotation Zrotation
									JOINT RightHandThumb2
									{
										OFFSET -6.037666 -3.485840 3.485847
										CHANNELS 3 Xrotation Yrotation Zrotation
										JOINT RightHandThumb3
										{
											OFFSET -6.496506 -3.750763 3.750761
											CHANNELS 3 Xrotation Yrotation Zrotation
											JOINT RightHandThumb4
											{
												OFFSET -5.616882 -3.242905 3.242910
												CHANNELS 3 Xrotation Yrotation Zrotation
												End Site
												{
													OFFSET 1.254608 7.132141 0.375429
												}
											}
										}
									}
								}
								JOINT RightHandIndex1
								{
									OFFSET -21.310577 -0.490082 6.209344
									CHANNELS 3 Xrotation Yrotation Zrotation
									JOINT RightHandIndex2
									{
										OFFSET -7.536453 0.000000 0.000000
										CHANNELS 3 Xrotation Yrotation Zrotation
										JOINT RightHandIndex3
										{
											OFFSET -7.512344 0.000000 0.000000
											CHANNELS 3 Xrotation Yrotation Zrotation
											JOINT RightHandIndex4
											{
												OFFSET -10.212402 0.000000 0.000001
												CHANNELS 3 Xrotation Yrotation Zrotation
												End Site
												{
													OFFSET 5.180801 8.690506 1.388433
												}
											}
										}
									}
								}
								JOINT RightHandMiddle1
								{
									OFFSET -23.373947 0.000000 0.000001
									CHANNELS 3 Xrotation Yrotation Zrotation
									JOINT RightHandMiddle2
									{
										OFFSET -6.996567 0.000000 0.000000
										CHANNELS 3 Xrotation Yrotation Zrotation
										JOINT RightHandMiddle3
										{
											OFFSET -7.015945 0.000000 0.000000
											CHANNELS 3 Xrotation Yrotation Zrotation
											JOINT RightHandMiddle4
											{
												OFFSET -7.721573 0.000000 0.000000
												CHANNELS 3 Xrotation Yrotation Zrotation
												End Site
												{
													OFFSET 4.651108 6.158463 0.251582
												}
											}
										}
									}
								}
								JOINT RightHandRing1
								{
									OFFSET -22.726120 -0.094986 -6.500475
									CHANNELS 3 Xrotation Yrotation Zrotation
									JOINT RightHandRing2
									{
										OFFSET -6.408615 0.000000 0.000000
										CHANNELS 3 Xrotation Yrotation Zrotation
										JOINT RightHandRing3
										{
											OFFSET -6.150223 0.000000 0.000000
											CHANNELS 3 Xrotation Yrotation Zrotation
											JOINT RightHandRing4
											{
												OFFSET -6.145386 0.000000 0.000000
												CHANNELS 3 Xrotation Yrotation Zrotation
												End Site
												{
													OFFSET 3.671402 4.923981 -0.202372
												}
											}
										}
									}
								}
								JOINT RightHandPinky1
								{
									OFFSET -18.920792 -0.453171 -11.426712
									CHANNELS 3 Xrotation Yrotation Zrotation
									JOINT RightHandPinky2
									{
										OFFSET -4.919586 0.000000 0.000000
										CHANNELS 3 Xrotation Yrotation Zrotation
										JOINT RightHandPinky3
										{
											OFFSET -5.233047 0.000000 0.000000
											CHANNELS 3 Xrotation Yrotation Zrotation
											JOINT RightHandPinky4
											{
												OFFSET -5.571716 0.000000 0.000000
												CHANNELS 3 Xrotation Yrotation Zrotation
												End Site
												{
													OFFSET 3.459808 4.342407 -0.466164
												}
											}
										}
									}
								}
							}
						}
					}
				}
			}
		}
	}
	JOINT LeftUpLeg
	{
		OFFSET 19.899099 -7.885101 -3.429500
		CHANNELS 3 Xrotation Yrotation Zrotation
		JOINT LeftLeg
		{
			OFFSET 1.745560 -36.997807 10.304700
			CHANNELS 3 Xrotation Yrotation Zrotation
			JOINT LeftFoot
			{
				OFFSET -1.745558 -29.803308 -13.615400
				CHANNELS 3 Xrotation Yrotation Zrotation
				JOINT LeftToeBase
				{
					OFFSET 1.181900 -18.539904 15.226099
					CHANNELS 3 Xrotation Yrotation Zrotation
					JOINT LeftToe_End
					{
						OFFSET -0.863701 1.402801 16.534700
						CHANNELS 3 Xrotation Yrotation Zrotation
						End Site
						{
							OFFSET 0.000000 16.616566 0.000000
						}
					}
				}
			}
		}
	}
	JOINT RightUpLeg
	{
		OFFSET -19.899099 -7.885101 -3.429500
		CHANNELS 3 Xrotation Yrotation Zrotation
		JOINT RightLeg
		{
			OFFSET -1.745560 -36.997807 10.304700
			CHANNELS 3 Xrotation Yrotation Zrotation
			JOINT RightFoot
			{
				OFFSET 1.745558 -29.803308 -13.615400
				CHANNELS 3 Xrotation Yrotation Zrotation
				JOINT RightToeBase
				{
					OFFSET -1.181900 -18.539904 15.226099
					CHANNELS 3 Xrotation Yrotation Zrotation
					JOINT RightToe_End
					{
						OFFSET 0.863701 1.402801 16.534700
						CHANNELS 3 Xrotation Yrotation Zrotation
						End Site
						{
							OFFSET 0.000000 16.616566 0.000000
						}
					}
				}
			}
		}
	}
}
MOTION
Frames: 4
Frame Time: 0.033333
50.114498 91.573318 99.907753 116.436789 45.539805 -182.942328 8.400693 7.844267 -12.501632 3.329474 -0.420767 -1.803081 3.422914 -0.342524 -1.679624 -6.406684 19.012472 0.799332 -20.565355 -20.317248 7.884075 -0.000003 -0.000001 -0.000002 -1.574643 -12.631760 -20.128149 -21.063904 -33.056422 29.385601 -0.000000 -15.574558 -0.000017 -5.320785 -3.201368 14.650086 -22.321799 -3.781410 -1.194635 5.407497 11.907339 7.569237 -7.305062 -0.433148 13.171685 -0.000000 0.000001 -0.000003 -5.968931 15.667549 -12.727981 0.516152 2.406338 -24.209551 0.516165 2.406323 -24.209556 0.000001 0.000001 -0.000000 2.392500 10.398968 -17.816934 0.172478 1.412491 -13.922785 0.172480 1.412524 -13.923156 -0.000001 0.000000 0.000005 0.861276 6.466847 -12.899747 0.196805 1.507180 -14.877591 0.196782 1.507200 -14.877694 -0.000000 -0.000002 0.000004 -0.716680 -4.647390 -6.490550 0.053142 0.787984 -7.713477 0.053107 0.788025 -7.713481 -0.000001 -0.000002 0.000001 1.185688 7.832794 0.257301 -78.008799 42.583976 68.770852 0.000080 67.123124 -0.000059 18.332325 10.540834 -14.907137 -8.995386 6.793580 1.032237 6.024216 -20.523598 -7.221938 -4.767818 -11.136249 -15.922165 -0.000001 -0.000001 0.000001 -0.321624 -1.032704 12.076060 0.003794 -0.188162 2.310632 0.110922 -1.011459 12.516830 -0.000002 0.000000 -0.000001 0.344176 -4.096623 12.931666 0.003629 -0.184153 2.261177 0.105696 -0.987612 12.217166 -0.000000 0.000001 -0.000004 0.406289 -4.886473 9.027131 0.009004 -0.289829 3.560142 0.007752 -0.268823 3.301869 -0.000002 -0.000001 -0.000007 0.733947 -8.674535 6.145003 0.027513 -0.505859 6.222102 0.022159 -0.454274 5.585463 -0.000000 -0.000001 0.000004 -93.936131 -14.630386 25.331169 13.399507 10.441029 -2.021904 26.330881 14.861605 17.743646 -15.641628 -0.000005 0.000001 -0.000001 -0.000000 0.000000 -9.647812 -20.518192 -23.607319 82.833242 6.400804 3.374623 5.867834 -16.102719 17.407338 -3.977260 0.000009 0.000005 -0.000001 -0.000000 0.000000 
53.690952 79.017509 96.220695 117.469814 42.227187 -187.621840 8.677297 7.259603 -15.295184 3.777163 -1.029158 -2.228155 3.886089 -0.867280 -2.053791 -5.843128 16.214217 0.509000 -23.345291 -24.586680 12.638144 0.000001 0.000001 0.000002 -0.747989 -11.266314 -18.403431 -30.359651 -40.835430 23.594074 -0.000004 -23.514009 -0.000007 3.963648 -0.994984 23.822272 -21.922933 -2.569706 -1.821371 5.443660 11.963799 7.114527 -7.305071 -0.433123 13.171715 0.000001 -0.000003 -0.000003 -5.015203 15.719330 -9.895891 0.521591 2.418381 -24.338635 0.504925 2.381205 -23.940517 -0.000002 0.000003 -0.000000 2.093099 10.092291 -16.093030 0.171758 1.409588 -13.893792 0.166500 1.388171 -13.678393 -0.000003 -0.000001 0.000003 0.881014 6.731072 -12.150772 0.184462 1.459951 -14.400959 0.188146 1.474312 -14.545595 -0.000001 0.000000 0.000004 -0.733083 -4.056884 -7.096981 0.053133 0.788017 -7.713458 0.053124 0.788002 -7.713469 -0.000002 0.000001 0.000001 1.098572 11.289652 5.316759 -92.761824 45.493274 73.239429 -0.000009 54.284394 0.000032 29.360777 14.000066 -14.272786 -15.730592 6.331745 1.535272 5.787146 -17.027554 -10.655867 -5.139994 -8.109586 -15.289481 0.000001 -0.000001 -0.000000 -0.715552 1.852153 9.779926 0.018175 -0.411557 5.058596 0.072358 -0.818618 10.101980 0.000003 0.000000 0.000001 0.409719 -4.802885 9.564606 0.016894 -0.396641 4.874926 0.066193 -0.783358 9.662354 0.000002 0.000001 -0.000004 0.569339 -6.991542 6.528795 0.028128 -0.511670 6.293803 0.026986 -0.501088 6.163294 0.000003 0.000002 -0.000001 0.149581 -15.472153 -0.092154 0.101678 -0.968897 11.981972 0.089208 -0.908158 11.220733 0.000000 -0.000001 0.000004 -110.075643 -18.008868 16.961190 47.012141 7.645435 -2.477734 -1.079187 10.164471 19.498440 -0.942189 0.000003 -0.000001 0.000000 -0.000000 -0.000000 -8.477081 -24.290504 -20.157703 86.674479 7.934679 5.817714 1.579948 -10.380732 4.149891 -5.051635 0.000004 -0.000007 0.000000 0.000000 0.000000 
57.353832 68.742409 93.189041 114.645518 36.557129 -189.413590 9.405942 4.773844 -18.438622 4.465748 -1.610259 -2.650103 4.562966 -1.316915 -2.425821 -4.404362 12.740508 0.188387 -27.857429 -30.295994 15.609888 -0.000000 0.000001 -0.000000 0.096746 -9.337136 -16.610390 -44.413165 -53.122814 10.666406 0.000017 -22.182595 0.000017 16.988175 -1.448798 36.903737 -20.974823 -1.936881 -3.280664 5.513254 12.069762 6.255128 -7.305062 -0.433149 13.171691 0.000001 0.000002 -0.000001 -3.760484 16.794281 -5.560838 0.492006 2.351925 -23.627762 0.476318 2.315781 -23.242676 0.000001 -0.000001 0.000003 1.692707 9.820768 -13.218010 0.158132 1.353387 -13.328861 0.152683 1.330069 -13.095407 -0.000001 0.000000 0.000005 0.788753 6.691343 -10.692240 0.153286 1.332686 -13.121583 0.163922 1.377511 -13.571371 -0.000002 -0.000000 0.000004 -0.747071 -3.964494 -7.293408 0.053118 0.788034 -7.713460 0.053123 0.788016 -7.713465 -0.000001 0.000000 -0.000001 0.705584 16.068645 9.348424 -103.132086 48.967672 75.301873 0.000025 43.769297 -0.000017 39.406145 13.377914 -19.354926 -21.543851 6.042487 2.049306 5.568434 -14.032876 -13.168508 -5.437370 -5.858440 -14.808205 -0.000002 -0.000001 0.000001 -0.771256 4.283118 7.128525 0.037302 -0.588962 7.249529 0.048506 -0.671179 8.268080 -0.000002 -0.000001 0.000001 0.358362 -5.395974 6.076390 0.032845 -0.552752 6.801333 0.041944 -0.624325 7.687263 0.000002 0.000001 -0.000008 0.488492 -8.743195 3.753321 0.054577 -0.711737 8.771366 0.054174 -0.709002 8.737903 -0.000002 -0.000001 -0.000002 -1.725538 -21.158084 -6.202614 0.196761 -1.340736 16.696683 0.186462 -1.305946 16.251038 0.000003 -0.000000 0.000006 -126.116916 -15.309850 8.706758 65.977708 6.811031 -2.437046 -9.312095 5.156330 21.264800 -0.942164 -0.000005 -0.000000 -0.000000 -0.000001 -0.000000 -16.376357 -30.982698 -16.039840 90.776493 10.985325 6.350640 -0.027957 0.666186 -6.319535 8.009269 -0.000005 0.000020 -0.000000 -0.000001 -0.000000 
60.379326 61.111099 88.771370 109.150658 29.924681 -190.518879 10.646482 1.524114 -20.236546 5.180689 -1.604019 -2.815685 5.189119 -1.169991 -2.602311 -1.918928 8.563327 -0.296106 -33.920799 -35.969450 16.208288 -0.000000 -0.000001 0.000001 0.706610 -7.532983 -14.826660 -68.522930 -62.946313 -14.063647 0.000006 -17.432352 0.000010 29.628421 -0.941758 50.976564 -20.333232 -2.058679 -4.473662 5.512913 12.069246 6.259271 -7.305072 -0.433144 13.171694 0.000001 0.000001 -0.000001 -2.873661 18.668249 -0.476502 0.438945 2.226774 -22.299364 0.428650 2.201584 -22.033287 0.000000 0.000003 0.000003 1.248359 9.611479 -9.646471 0.136769 1.259785 -12.391624 0.131127 1.233753 -12.131751 -0.000002 0.000003 0.000004 0.629041 6.423253 -8.732016 0.115194 1.157227 -11.368590 0.130249 1.229702 -12.091309 0.000000 -0.000001 0.000008 -0.749020 -4.260577 -7.045578 0.053129 0.788016 -7.713462 0.053125 0.788005 -7.713462 -0.000002 0.000004 0.000004 1.829352 15.895710 0.593090 -106.095254 51.956341 73.016990 0.000015 38.215598 -0.000010 38.932847 4.526176 -30.685024 -24.516081 5.991650 1.619786 5.438986 -12.776437 -13.483353 -5.485715 -5.504920 -14.731685 0.000002 -0.000001 -0.000000 -0.438673 5.104869 4.122418 0.042520 -0.628600 7.740224 0.043103 -0.632777 7.792187 -0.000000 -0.000001 0.000003 0.216380 -5.556400 2.934351 0.032996 -0.553976 6.816798 0.035576 -0.575195 7.079095 0.000002 0.000001 -0.000006 0.191992 -9.260868 0.911455 0.070047 -0.805495 9.938412 0.071639 -0.814571 10.051553 -0.000000 -0.000002 -0.000002 -3.360749 -23.170867 -10.176326 0.224972 -1.431428 17.863144 0.247696 -1.500077 18.751511 0.000001 0.000000 0.000000 -136.656977 -8.841175 3.180761 78.075312 7.719248 -2.334523 -16.835245 -1.921179 22.347640 -0.942165 -0.000003 0.000002 -0.000000 -0.000000 -0.000000 -26.309769 -31.816404 -7.290845 95.067518 11.916908 6.969964 -12.763827 -0.411547 -0.657222 19.258524 0.000022 0.000010 -0.000002 -0.000001 0.000002 
